<?xml version="1.0" encoding="UTF-8"?>
<svg id="Layer_1" data-name="Layer 1" xmlns="http://www.w3.org/2000/svg" version="1.1" viewBox="0 0 24 24">
  <defs>
    <style>
      .cls-1 {
        fill: #000;
        stroke: #000;
        stroke-miterlimit: 10;
        stroke-width: .5px;
      }
    </style>
  </defs>
  <path class="cls-1" d="M6.5,23.4c-2.8,0-3.6-6.2-3.6-9.9s-.4-1.7-.7-2.8c-.8-2.3-1.8-5.1,0-7.7C3.3,1.4,4.5.6,6,.6s1.9.3,2.9.6c1,.3,2,.7,3,.7s2.1-.3,3.1-.7c1-.3,1.9-.6,2.9-.6,1.5,0,2.8.8,4,2.4,1.9,2.5.8,5.4,0,7.7-.4,1-.7,2-.7,2.7,0,1.7-.2,9.9-3.6,9.9s-2.9-2.4-3.4-4.6c-.5-2.2-.9-3.5-2.1-3.5s-1.9,1.9-2.4,3.9c-.6,2.1-1.1,4.3-3.1,4.3ZM6,1.4c-1.2,0-2.2.6-3.2,2.1-1.6,2.3-.6,4.7.2,6.9.4,1.1.8,2.2.8,3,0,4.5,1,9.1,2.8,9.1s1.8-1.8,2.3-3.7c.6-2.1,1.2-4.5,3.2-4.5s2.4,2.1,2.9,4.1c.5,2.4,1,4,2.6,4s2.8-4.7,2.8-9.1.4-1.9.8-3c.8-2.2,1.7-4.8,0-7-1.1-1.4-2.1-2.1-3.3-2.1s-1.7.3-2.6.6c-1,.3-2.1.7-3.3.7s-2.3-.4-3.3-.7c-.9-.3-1.8-.6-2.6-.6Z"/>
</svg>